<svg viewBox="0 0 860 136" xmlns="http://www.w3.org/2000/svg"><path fill="#F9423A" d="M105.832 67.807a2.565 2.565 0 001.414-3.33L93.15 29.588a2.563 2.563 0 00-3.329-1.41l-9.06 3.659a2.565 2.565 0 00-1.415 3.329l14.099 34.89a2.561 2.561 0 003.326 1.411l9.06-3.66zM85.75 79.027a2.545 2.545 0 000-3.588L51.635 41.324a2.542 2.542 0 00-3.585 0l-6.937 6.938a2.545 2.545 0 000 3.589l34.111 34.114c.99.987 2.602.987 3.588 0l6.938-6.938zM71.252 96.99a2.561 2.561 0 00-1.411-3.33L34.95 79.565a2.563 2.563 0 00-3.326 1.411l-3.662 9.062a2.563 2.563 0 001.414 3.326l34.887 14.1a2.564 2.564 0 003.329-1.414l3.66-9.06zM67.89.209c37.494 0 67.89 30.398 67.89 67.895 0 37.5-30.396 67.896-67.89 67.896S0 105.604 0 68.104C0 30.607 30.396.21 67.89.21zM429.278 0c1.74 0 1.986 1.218 1.679 2.589l-4.636 23.736c-.153 1.37-.939 1.676-2.215 1.676h-11.161c-1.737 0-1.987-1.216-1.679-2.587l4.636-23.735C416.055.309 416.84 0 418.117 0h11.161zM574 49.31c0 1.228-.755 1.831-2.126 1.831h-13.74c3.957 6.867 5.188 14.041 5.188 21.663 0 25.468-17.69 46.67-42.554 46.67-9.148 0-20.278-4.572-25.006-14.028-5.648 7.164-13.272 14.028-25.478 14.028-7.929 0-16.616-2.586-21.048-10.529-6.701 6.712-14.938 10.53-23.48 10.53-25.468 0-28.222-21.356-24.865-40.417l3.86-22.497c-6.095 3.176-15.125 3.176-20.026 2.062 1.228 4.573 1.676 9.146 1.676 13.72 0 24.558-13.717 47.131-40.708 47.131-9.465 0-19.678-4.417-24.403-14.18-5.035 8.84-14.797 14.18-24.712 14.18-7.47 0-15.706-4.125-19.83-12.35-6.864 8.996-17.23 12.35-25.619 12.35-17.691 0-25.008-10.979-25.008-27.914 0-4.42.603-9.148 1.526-14.336l7.18-39.671c.152-1.076.92-1.524 2.135-1.524h12.578c1.505 0 1.678 1.229 1.523 2.14l-7.25 39.515c-3.049 16.475-1.986 26.239 9.61 26.239 10.055 0 17.381-6.867 20.125-22.126l7.942-44.244c.155-1.076.923-1.524 2.139-1.524h12.575c1.508 0 1.678 1.229 1.526 2.14l-7.403 40.426c-1.831 9.608-3.357 25.175 8.392 25.175 8.376 0 13.72-8.392 17.228-27.161l13.72-75.035C329.822.511 330.827 0 331.806 0h12.582c.842 0 1.819.755 1.524 2.129l-7.085 39.251c6.25-3.512 13.412-5.638 20.278-5.638 6.253 0 10.53 1.831 14.795 3.805 14.299 7.1 27.805 3.128 33.748-2.358.717-.725 1.536-1.16 2.594-1.16.287-.002 12.35 0 12.35 0 2.03 0 2.295 1.371 1.987 2.907l-7.522 40.274c-2.281 11.132-2.126 24.56 9.762 24.56 9.913 0 16.474-10.071 19.523-26.086l5.045-25.643h-14.16c-1.522 0-2.446-.755-2.446-2.126V38.321c0-1.523.771-2.292 2.14-2.292h17.586l6.643-34.35C461.305.308 462.09 0 463.365 0h12.285c1.74 0 1.986 1.218 1.678 2.589l-6.484 33.44h18.843c1.381 0 2.139.769 2.139 2.14v11.899c0 1.218-.758 1.973-1.986 1.973h-22.127l-5.358 27.17c-1.833 9.455-3.052 24.56 8.697 24.56 13.117 0 17.692-13.121 19.675-27.302 3.96-28.07 20.74-41.035 43.465-41.035h37.682c1.37 0 2.126.758 2.126 2.14V49.31zM369.935 72.957c0-14.95-7.153-21.663-15.34-21.663-10.957 0-23.08 11.594-23.08 30.966 0 11.747 5.115 21.51 15.632 21.51 11.83 0 22.788-11.902 22.788-30.813zm176.76 0c0-14.95-7.468-21.663-16.012-21.663-11.441 0-24.098 11.594-24.098 30.966 0 11.747 5.343 21.51 16.321 21.51 12.349 0 23.79-11.902 23.79-30.813zm-323.48-26.083l-5.788 8.995c-.77 1.073-1.834 1.228-2.744.615-5.033-2.896-11.13-6.866-20.135-6.866-8.392 0-14.183 2.741-14.183 8.082 0 4.88 1.679 6.406 15.859 12.363 15.257 6.406 22.571 12.044 22.571 25.622 0 17.988-14.795 23.79-30.806 23.79-6.713 0-20.433-.766-31.258-13.271l-3.202-3.665c-.49-.648-.768-1.063-.768-1.678 0-.603.308-1.216.768-1.679l8.685-7.622c.432-.379.923-.603 1.525-.603.46 0 1.073.143 1.524.756 6.866 8.085 13.884 12.21 22.726 12.21 9.76 0 14.038-2.602 14.038-8.238 0-4.277-1.831-6.406-13.27-11.286-17.089-7.175-24.71-12.518-24.71-26.699 0-14.18 11.899-23.944 30.808-23.944 9.3 0 18.905 3.05 27.757 9.303.91.613 1.218 1.37 1.218 1.984 0 .615-.307 1.218-.615 1.83z" fill-rule="evenodd"/></svg>