<svg width="60" height="48" xmlns="http://www.w3.org/2000/svg"><path d="M0 46.643v-8.048h1.864v8.048H0zm11.76-8.049h1.53l.023 8.048h-1.75l-.01-4.828-2.37 3.979h-.84l-2.36-3.875v4.724h-1.75v-8.048h1.543l3.014 5.002 2.97-5.002zm11.447 0h1.53l.024 8.048h-1.75l-.01-4.828-2.37 3.979h-.842l-2.357-3.875v4.724h-1.75v-8.048h1.541l3.015 5.002 2.97-5.002zm10.344 4.024c0-1.529-1.082-2.575-2.521-2.575-1.438 0-2.52 1.046-2.52 2.575 0 1.53 1.082 2.576 2.52 2.576 1.439 0 2.52-1.046 2.52-2.576zm-6.928 0c0-2.391 1.864-4.161 4.407-4.161 2.532 0 4.407 1.758 4.407 4.161 0 2.404-1.875 4.162-4.407 4.162-2.543 0-4.407-1.77-4.407-4.162zm15.96 1.633c0-.678-.519-1-1.485-1h-2.176v1.989h2.176c.966 0 1.484-.3 1.484-.989zm-3.66-4.253v1.896h1.852c.91 0 1.404-.322 1.404-.955 0-.631-.494-.941-1.404-.941h-1.853zm5.535 4.448c0 1.393-1.105 2.196-3.223 2.196H37.07v-8.048h3.936c2.013 0 3.049.84 3.049 2.093 0 .804-.414 1.426-1.07 1.77.897.288 1.473.978 1.473 1.99zm1.874 2.196v-8.048h1.863v8.048h-1.863zm4.234-8.048h1.864v6.53h4.039v1.518h-5.903v-8.048zm7.41 8.048v-8.048h1.863v8.048h-1.864zm-20.38-32.977a.519.519 0 00.286-.673L35.03 5.938a.518.518 0 00-.673-.285l-1.833.74a.519.519 0 00-.286.673l2.852 7.053a.519.519 0 00.674.286l1.832-.74zm-4.063 2.267c.2-.2.2-.525 0-.724l-6.901-6.897a.517.517 0 00-.726 0L24.5 9.714a.516.516 0 000 .725l6.903 6.896c.2.2.527.2.725 0l1.404-1.403zM30.6 19.564a.52.52 0 00-.285-.674l-7.06-2.849a.518.518 0 00-.672.285l-.742 1.833a.517.517 0 00.286.672l7.059 2.85a.52.52 0 00.674-.286l.74-1.83zM29.92 0c7.587 0 13.736 6.145 13.736 13.725S37.506 27.45 29.92 27.45s-13.736-6.144-13.736-13.724S22.334 0 29.92 0z" fill="#FFF" fill-rule="evenodd"/></svg>