<svg width="126" height="30" xmlns="http://www.w3.org/2000/svg"><path d="M38.17 20.562V8.716h2.74v11.846h-2.74zm16.821 0l-.017-7.109-3.483 5.856h-1.234l-3.466-5.703v6.955h-2.572V8.715h2.266l4.43 7.361 4.363-7.361h2.25l.033 11.846h-2.57zm16.647 0l-.017-7.109-3.483 5.856h-1.234l-3.466-5.703v6.955h-2.572V8.715h2.266l4.43 7.361 4.363-7.361h2.25l.033 11.846h-2.57zm15.311-5.924c0-2.25-1.59-3.79-3.703-3.79-2.114 0-3.704 1.54-3.704 3.79 0 2.251 1.59 3.792 3.704 3.792 2.113 0 3.703-1.54 3.703-3.792zm-10.18 0c0-3.52 2.74-6.126 6.477-6.126 3.72 0 6.476 2.589 6.476 6.126 0 3.538-2.756 6.126-6.476 6.126-3.738 0-6.477-2.606-6.477-6.126zm23.615 2.404c0-1-.762-1.473-2.182-1.473h-3.195v2.927h3.195c1.42 0 2.182-.44 2.182-1.454zm-5.377-6.262v2.792h2.722c1.335 0 2.063-.474 2.063-1.404 0-.932-.728-1.388-2.063-1.388h-2.722zm8.133 6.55c0 2.047-1.624 3.231-4.735 3.231h-6.121V8.715h5.783c2.959 0 4.481 1.236 4.481 3.08 0 1.185-.608 2.1-1.573 2.606 1.32.424 2.165 1.439 2.165 2.928zm2.58 3.232V8.716h2.74v11.846h-2.74zm6.05-11.846h2.74v9.612h5.935v2.234h-8.674V8.716zm10.715 11.846V8.716h2.739v11.846h-2.74zm-99.697-5.995a.553.553 0 00.304-.717l-3.036-7.518a.55.55 0 00-.716-.304l-1.95.787a.553.553 0 00-.305.718l3.035 7.518a.552.552 0 00.717.305l1.95-.79zm-4.324 2.417a.549.549 0 000-.773L11.118 8.86a.55.55 0 00-.773 0l-1.493 1.495a.549.549 0 000 .773l7.346 7.352a.546.546 0 00.771 0l1.495-1.496zm-3.122 3.871a.553.553 0 00-.304-.717L7.525 17.1a.552.552 0 00-.717.305l-.788 1.952a.555.555 0 00.304.718l7.513 3.037a.553.553 0 00.717-.304l.788-1.953zM14.618 0c8.073 0 14.618 6.55 14.618 14.631 0 8.08-6.545 14.63-14.618 14.63C6.544 29.262 0 22.712 0 14.632 0 6.551 6.544 0 14.618 0z" fill="#FFF" fill-rule="evenodd"/></svg>