<svg width="60" height="48" xmlns="http://www.w3.org/2000/svg"><path d="M3.703 38.594h1.861v6.531h4.032v1.517H3.703v-8.048zm10.682 0h1.838l3.596 8.048h-1.953l-.713-1.724H13.42l-.713 1.724h-1.906l3.584-8.048zm.908 1.828l-1.275 3.081h2.55l-1.275-3.081zM26.1 38.594h1.849l-3.48 8.048h-1.838l-3.47-8.048h2.01l2.447 5.75 2.482-5.75zm9.291 4.024c0-1.53-1.08-2.576-2.516-2.576s-2.515 1.046-2.515 2.576 1.08 2.575 2.515 2.575c1.437 0 2.516-1.046 2.516-2.575zm-6.915 0c0-2.391 1.86-4.161 4.399-4.161 2.528 0 4.4 1.757 4.4 4.161 0 2.403-1.872 4.162-4.4 4.162-2.538 0-4.399-1.77-4.399-4.162zm14.036-2.507h-1.516v2.807h1.516c1.137 0 1.711-.53 1.711-1.404 0-.885-.574-1.403-1.711-1.403zm1.746 6.531L42.708 44.4H40.996v2.242h-1.86v-8.048h3.48c2.148 0 3.493 1.115 3.493 2.92 0 1.207-.61 2.093-1.655 2.54l1.803 2.588h-1.998zm10.188-4.024c0-1.53-1.08-2.576-2.516-2.576s-2.516 1.046-2.516 2.576 1.08 2.575 2.516 2.575 2.516-1.046 2.516-2.575zm-6.915 0c0-2.391 1.86-4.161 4.399-4.161 2.527 0 4.4 1.757 4.4 4.161 0 2.403-1.873 4.162-4.4 4.162-2.539 0-4.4-1.77-4.4-4.162zM37.68 13.665a.519.519 0 00.285-.673l-2.847-7.054a.516.516 0 00-.671-.285l-1.83.74a.519.519 0 00-.286.673l2.848 7.053a.518.518 0 00.672.286l1.83-.74zm-4.056 2.267c.2-.2.2-.525 0-.724l-6.89-6.897a.515.515 0 00-.724 0l-1.402 1.403a.516.516 0 000 .725l6.891 6.896c.199.2.525.2.724 0l1.401-1.403zm-2.928 3.632a.52.52 0 00-.285-.674l-7.047-2.849a.516.516 0 00-.671.285l-.74 1.833a.517.517 0 00.285.672l7.047 2.85a.518.518 0 00.672-.286l.74-1.83zM30.018 0c7.573 0 13.711 6.145 13.711 13.725S37.591 27.45 30.018 27.45c-7.574 0-13.713-6.144-13.713-13.724S22.445 0 30.018 0z" fill="#FFF" fill-rule="evenodd"/></svg>