<svg width="126" height="30" xmlns="http://www.w3.org/2000/svg"><path d="M44.171 8.716h2.74v9.612h5.936v2.234H44.17V8.716zm19.103 7.225l-1.877-4.536-1.878 4.536h3.755zm.862 2.083H58.64l-1.049 2.537h-2.806L60.06 8.716h2.707l5.292 11.845h-2.874l-1.05-2.537zm15.72-9.308l-5.125 11.846h-2.705L66.919 8.716h2.96l3.602 8.46 3.653-8.46h2.722zm10.782 5.922c0-2.25-1.59-3.79-3.704-3.79s-3.702 1.54-3.702 3.79c0 2.251 1.588 3.792 3.702 3.792s3.704-1.54 3.704-3.792zm-10.18 0c0-3.52 2.739-6.126 6.476-6.126 3.721 0 6.477 2.589 6.477 6.126 0 3.538-2.756 6.126-6.477 6.126-3.737 0-6.476-2.606-6.476-6.126zm20.487-3.69h-2.232v4.13h2.232c1.674 0 2.52-.779 2.52-2.064 0-1.304-.846-2.065-2.52-2.065zm2.57 9.613l-2.283-3.3h-2.519v3.3h-2.74V8.715h5.124c3.163 0 5.14 1.642 5.14 4.299 0 1.777-.895 3.08-2.435 3.74l2.655 3.807h-2.942zm14.823-5.923c0-2.25-1.59-3.79-3.703-3.79-2.114 0-3.703 1.54-3.703 3.79 0 2.251 1.589 3.792 3.703 3.792 2.113 0 3.703-1.54 3.703-3.792zm-10.18 0c0-3.52 2.739-6.126 6.477-6.126 3.72 0 6.476 2.589 6.476 6.126 0 3.538-2.756 6.126-6.476 6.126-3.738 0-6.477-2.606-6.477-6.126zm-79.37-.071a.553.553 0 00.305-.717l-3.036-7.518a.55.55 0 00-.716-.304l-1.95.787a.553.553 0 00-.305.718l3.035 7.518a.552.552 0 00.717.305l1.95-.79zm-4.323 2.417a.549.549 0 000-.773L17.119 8.86a.55.55 0 00-.773 0l-1.493 1.495a.549.549 0 000 .773l7.346 7.352a.546.546 0 00.771 0l1.495-1.496zm-3.122 3.871a.553.553 0 00-.305-.717L13.526 17.1a.552.552 0 00-.717.305l-.789 1.952a.555.555 0 00.305.718l7.512 3.037a.553.553 0 00.717-.304l.789-1.953zM20.618 0c8.074 0 14.62 6.55 14.62 14.631 0 8.08-6.546 14.63-14.62 14.63C12.544 29.262 6 22.712 6 14.632 6 6.551 12.544 0 20.618 0z" fill="#FFF" fill-rule="evenodd"/></svg>