<svg width="60" height="48" xmlns="http://www.w3.org/2000/svg"><path d="M10.85 38.707h1.533l.022 8.072h-1.75l-.013-4.841-2.374 3.989h-.84L5.064 42.04v4.739H3.314v-8.072h1.544l3.019 5.017 2.973-5.017zm6.694 0h1.844l3.607 8.072h-1.959l-.715-1.73h-3.745l-.714 1.73h-1.914l3.596-8.072zm.91 1.834l-1.279 3.09h2.558l-1.28-3.09zm30.005 4.74v1.499h-6.246v-8.072h6.096v1.499h-4.24v1.752h3.745v1.454h-3.745v1.868h4.39zm3.618-5.052h-2.581v-1.522h7.03v1.522h-2.583v6.55h-1.866v-6.55zm-24.163 0h-1.52v2.815h1.52c1.14 0 1.717-.53 1.717-1.407 0-.889-.576-1.408-1.717-1.408zm1.752 6.55l-1.556-2.248h-1.717v2.248h-1.866v-8.072h3.49c2.156 0 3.505 1.119 3.505 2.93 0 1.21-.612 2.098-1.66 2.547l1.809 2.595h-2.005zm6.498-3.17l-1.083 1.13v2.04h-1.856v-8.072h1.856v3.771l3.572-3.771h2.074l-3.341 3.598 3.537 4.474h-2.177l-2.582-3.17zm1.443-29.904a.52.52 0 00.286-.675l-2.856-7.074a.518.518 0 00-.674-.286l-1.836.742a.52.52 0 00-.286.675l2.856 7.074a.52.52 0 00.675.286l1.835-.742zm-4.07 2.274c.2-.2.2-.527 0-.726l-6.91-6.918c-.2-.2-.529-.2-.728 0l-1.407 1.408a.518.518 0 000 .727l6.914 6.916c.199.2.527.2.726 0l1.406-1.407zM30.6 19.622a.521.521 0 00-.286-.676l-7.07-2.858a.518.518 0 00-.673.286l-.742 1.838a.519.519 0 00.285.674l7.07 2.858a.52.52 0 00.675-.286l.741-1.836zM29.92 0c7.597 0 13.756 6.163 13.756 13.766 0 7.602-6.159 13.764-13.756 13.764-7.598 0-13.757-6.162-13.757-13.764C16.163 6.163 22.322 0 29.92 0z" fill="#FFF" fill-rule="evenodd"/></svg>