<svg width="126" height="30" xmlns="http://www.w3.org/2000/svg"><path d="M53.973 20.561l-.017-7.108-3.485 5.856h-1.235l-3.468-5.703v6.955h-2.573V8.715h2.267l4.433 7.361 4.366-7.361h2.25l.034 11.846h-2.572zm12.817-4.62l-1.879-4.536-1.878 4.536h3.757zm.862 2.083h-5.498l-1.05 2.537h-2.808l5.278-11.845h2.708l5.296 11.845h-2.876l-1.05-2.537zm10.636-7.075h-2.234v4.13h2.234c1.675 0 2.52-.78 2.52-2.065 0-1.304-.845-2.065-2.52-2.065zm2.571 9.612l-2.284-3.3h-2.521v3.3h-2.74V8.715h5.126c3.165 0 5.143 1.642 5.143 4.299 0 1.777-.896 3.08-2.436 3.74l2.656 3.807H80.86zm9.706-4.653l-1.59 1.657v2.997H86.25V8.716h2.725v5.533l5.245-5.533h3.045l-4.907 5.28 5.195 6.566h-3.198l-3.79-4.654zm17.878 2.454v2.199h-9.171V8.716h8.95v2.199h-6.226v2.573h5.498v2.131h-5.498v2.743h6.447zm5.137-7.413h-3.79V8.715h10.321v2.234h-3.79v9.612h-2.741V10.95zm-85.778 3.618a.553.553 0 00.305-.717L25.07 6.332a.552.552 0 00-.718-.304l-1.952.787a.552.552 0 00-.304.718l3.038 7.518a.55.55 0 00.716.305l1.952-.79zm-4.327 2.417a.548.548 0 000-.773l-7.35-7.351a.55.55 0 00-.773 0l-1.494 1.495a.548.548 0 000 .773l7.35 7.352c.212.213.56.213.772 0l1.495-1.496zm-3.123 3.871a.552.552 0 00-.305-.717L12.53 17.1a.553.553 0 00-.717.305l-.789 1.952a.555.555 0 00.304.718l7.517 3.037a.553.553 0 00.718-.304l.789-1.953zM19.627 0c8.079 0 14.628 6.55 14.628 14.631 0 8.08-6.55 14.63-14.628 14.63C11.548 29.262 5 22.712 5 14.632 5 6.551 11.548 0 19.627 0z" fill="#FFF" fill-rule="evenodd"/></svg>