<svg width="126" height="30" xmlns="http://www.w3.org/2000/svg"><path d="M56.016 20.561l-.017-7.108-3.488 5.856h-1.237l-3.47-5.703v6.955h-2.576V8.715h2.27l4.436 7.361 4.37-7.361h2.252l.034 11.846h-2.574zm15.334-5.923c0-2.25-1.592-3.79-3.709-3.79s-3.708 1.54-3.708 3.79c0 2.251 1.591 3.792 3.708 3.792s3.71-1.54 3.71-3.792zm-10.195 0c0-3.52 2.743-6.126 6.486-6.126 3.726 0 6.487 2.589 6.487 6.126 0 3.538-2.76 6.126-6.487 6.126-3.743 0-6.486-2.606-6.486-6.126zm17.825-3.69h-3.794V8.716h10.33v2.234h-3.793v9.612H78.98V10.95zm17.793 3.69c0-2.25-1.592-3.79-3.71-3.79-2.116 0-3.707 1.54-3.707 3.79 0 2.251 1.59 3.792 3.708 3.792 2.117 0 3.709-1.54 3.709-3.792zm-10.195 0c0-3.52 2.743-6.126 6.486-6.126 3.726 0 6.486 2.589 6.486 6.126 0 3.538-2.76 6.126-6.486 6.126-3.743 0-6.486-2.606-6.486-6.126zm20.517-3.69h-2.235v4.13h2.235c1.677 0 2.523-.779 2.523-2.064 0-1.304-.846-2.065-2.523-2.065zm2.574 9.613l-2.286-3.3h-2.523v3.3h-2.744V8.715h5.131c3.168 0 5.148 1.642 5.148 4.299 0 1.777-.897 3.08-2.438 3.74l2.658 3.807h-2.946zm5.396 0V8.717h2.743v11.846h-2.743zm-85.243-5.994a.551.551 0 00.305-.717l-3.04-7.518a.552.552 0 00-.718-.304l-1.953.787a.552.552 0 00-.305.718l3.04 7.518a.551.551 0 00.718.305l1.953-.79zm-4.33 2.417a.548.548 0 000-.773L18.135 8.86a.551.551 0 00-.774 0l-1.495 1.495a.548.548 0 000 .773l7.356 7.352c.213.213.56.213.774 0l1.496-1.496zm-3.126 3.871a.554.554 0 00-.304-.717L14.537 17.1a.552.552 0 00-.717.305l-.79 1.952a.553.553 0 00.305.718l7.524 3.037a.553.553 0 00.717-.304l.79-1.953zM21.64 0c8.086 0 14.64 6.55 14.64 14.631 0 8.08-6.554 14.63-14.64 14.63S7 22.712 7 14.632C7 6.551 13.554 0 21.64 0z" fill="#FFF" fill-rule="evenodd"/></svg>