<svg width="60" height="48" xmlns="http://www.w3.org/2000/svg"><path d="M37.692 13.665a.519.519 0 00.285-.673l-2.851-7.054a.518.518 0 00-.673-.285l-1.833.74a.519.519 0 00-.285.673l2.851 7.053a.519.519 0 00.674.286l1.832-.74zm-4.063 2.267c.2-.2.2-.525 0-.724l-6.9-6.897a.517.517 0 00-.725 0L24.6 9.714a.516.516 0 000 .725l6.901 6.896c.199.2.526.2.725 0l1.403-1.403zm-2.932 3.632a.52.52 0 00-.285-.674l-7.058-2.849a.518.518 0 00-.672.285l-.742 1.833a.517.517 0 00.286.672l7.057 2.85a.52.52 0 00.674-.286l.74-1.83zM30.017 0C37.602 0 43.75 6.145 43.75 13.725S37.602 27.45 30.017 27.45c-7.584 0-13.733-6.144-13.733-13.724S22.433 0 30.017 0zM12.396 46.642l-.012-4.828-2.369 3.979h-.84l-2.358-3.876v4.725h-1.75v-8.048H6.61l3.015 5.002 2.968-5.002h1.53l.022 8.048h-1.748zm10.537-4.024c0-1.529-1.082-2.575-2.52-2.575s-2.52 1.046-2.52 2.575c0 1.53 1.082 2.576 2.52 2.576s2.52-1.046 2.52-2.576zm-6.926 0c0-2.391 1.863-4.161 4.405-4.161 2.532 0 4.407 1.758 4.407 4.161 0 2.404-1.875 4.162-4.407 4.162-2.542 0-4.405-1.77-4.405-4.162zm12.228-2.507h-2.577v-1.517h7.018v1.517h-2.578v6.531h-1.863v-6.53zm12.205 2.507c0-1.529-1.082-2.575-2.52-2.575s-2.52 1.046-2.52 2.575c0 1.53 1.082 2.576 2.52 2.576s2.52-1.046 2.52-2.576zm-6.926 0c0-2.391 1.863-4.161 4.405-4.161 2.532 0 4.407 1.758 4.407 4.161 0 2.404-1.875 4.162-4.407 4.162-2.542 0-4.405-1.77-4.405-4.162zm14.056-2.507h-1.518v2.807h1.518c1.139 0 1.714-.53 1.714-1.403 0-.886-.575-1.404-1.714-1.404zm1.748 6.531L47.766 44.4H46.052v2.242h-1.864v-8.048h3.486c2.15 0 3.497 1.115 3.497 2.921 0 1.207-.61 2.092-1.657 2.54l1.806 2.587h-2.002zm3.785 0v-8.048h1.863v8.048h-1.863z" fill="#FFF" fill-rule="evenodd"/></svg>